<svg width="1919" height="240" viewBox="0 8 1919 240" fill="none" xmlns="http://www.w3.org/2000/svg">
  <rect x="8" y="8" width="240" height="240" rx="56" fill="var(--ui-primary, #6366f1)" /><path d="M38.5 175.6 c-1.5 -1 -1.9 -2.7 -1.9 -7.7 0 -5.5 0.4 -7.1 3.1 -11.4 1.8 -2.7 4.8 -6.3 6.8 -7.8 1.9 -1.5 3.5 -3.2 3.5 -3.8 0 -1.2 -5.8 -0.4 -11.5 1.6 -11.7 4.1 -16.3 3.7 -19 -1.5 -2.6 -5 -1.2 -8.4 4.2 -11 6.6 -3.1 10.4 -3.5 14.3 -1.5 2.1 1.1 4.1 1.4 5.9 0.9 1.4 -0.4 3.5 -0.9 4.6 -1.1 4.9 -0.9 12.3 -3.8 16 -6.3 13.7 -9.4 18.6 -11.7 34 -16 6.6 -1.9 11.9 -2.4 31.3 -3.1 l23.4 -0.8 8.4 -8.5 c5.7 -5.8 9.5 -8.8 11.9 -9.5 1.9 -0.5 5.8 -2.4 8.7 -4.1 4.5 -2.8 5.4 -3 7.5 -1.9 2 1.1 2.9 0.9 6.2 -0.9 6.4 -3.6 7.6 -2.5 4.4 4.3 l-1.7 3.5 3.3 4.1 c2.8 3.5 3.2 4.6 2.7 7.7 -0.3 2 0 5.1 0.6 6.8 1.8 5 -0.4 8.9 -6.3 11.6 -2.9 1.4 -4.5 2.6 -4 3.3 0.4 0.5 1.6 3.5 2.6 6.5 2.8 8.8 1.9 8.2 13.5 8.5 10.2 0.2 21.7 1.9 25.3 3.7 2 1 2.3 5.1 0.3 6.7 -0.7 0.6 -5.1 1.5 -9.7 2.1 -4.6 0.5 -12.7 1.9 -17.9 3 -8.5 1.8 -12.8 2 -42 1.9 -17.9 -0.1 -35 -0.3 -38 -0.5 -3 -0.1 -10.7 -0.6 -17.1 -1 -9.7 -0.6 -12.4 -0.4 -17 1.1 -7.2 2.3 -7.3 2.4 -5.5 4.4 2.2 2.5 3.1 7.8 1.6 9.6 -2.7 3.3 -9.3 1.2 -17.4 -5.5 -5.6 -4.7 -8.8 -5 -15.6 -1.7 -4.4 2.2 -4.5 2.3 -4.8 7.6 -0.2 3.7 -0.9 5.9 -2 6.8 -2.3 1.7 -10.3 1.6 -12.7 -0.1z" fill="#fff" /><path d="M315.74 203.87L315.74 203.87Q308.67 203.87 304.93 199.92Q301.18 195.97 301.18 188.90L301.18 188.90L301.18 68.46Q301.18 61.39 305.24 57.44Q309.30 53.49 316.37 53.49L316.37 53.49Q322.61 53.49 326.25 55.88Q329.89 58.27 333.01 64.10L333.01 64.10L377.52 145.42L422.03 64.10Q425.15 58.27 428.79 55.88Q432.43 53.49 438.46 53.49L438.46 53.49Q445.54 53.49 449.38 57.44Q453.23 61.39 453.23 68.46L453.23 68.46L453.23 188.90Q453.23 195.97 449.49 199.92Q445.74 203.87 438.67 203.87Q431.60 203.87 427.75 199.92Q423.90 195.97 423.90 188.90L423.90 188.90L423.90 112.77L389.79 173.92Q387.30 177.87 384.49 179.85Q381.68 181.82 377.10 181.82Q372.53 181.82 369.62 179.74Q366.70 177.66 364.42 173.92L364.42 173.92L330.30 113.39L330.30 188.90Q330.30 195.97 326.66 199.92Q323.02 203.87 315.74 203.87ZM529.36 204.29L529.36 204.29Q512.93 204.29 500.76 197.84Q488.59 191.39 481.94 179.33Q475.28 167.26 475.28 150.83L475.28 150.83Q475.28 138.56 479.02 128.78Q482.77 119.01 489.94 112.04Q497.12 105.07 507.10 101.43Q517.09 97.79 529.36 97.79L529.36 97.79Q545.79 97.79 557.96 104.24Q570.13 110.69 576.89 122.54Q583.65 134.40 583.65 150.83L583.65 150.83Q583.65 163.31 579.80 173.09Q575.95 182.86 568.88 189.94Q561.81 197.01 551.72 200.65Q541.63 204.29 529.36 204.29ZM529.36 180.78L529.36 180.78Q536.22 180.78 541.22 177.46Q546.21 174.13 549.12 167.58Q552.03 161.02 552.03 150.83L552.03 150.83Q552.03 135.65 545.79 128.47Q539.55 121.30 529.36 121.30L529.36 121.30Q522.70 121.30 517.61 124.42Q512.51 127.54 509.70 134.09Q506.90 140.64 506.90 150.83L506.90 150.83Q506.90 166.02 513.14 173.40Q519.38 180.78 529.36 180.78ZM643.55 203.87L643.55 203.87Q637.52 203.87 632.94 200.65Q628.37 197.42 625.66 190.98L625.66 190.98L594.26 118.59Q591.97 113.18 592.59 108.50Q593.22 103.82 597.06 101.02Q600.91 98.21 607.78 98.21L607.78 98.21Q613.39 98.21 616.93 100.81Q620.46 103.41 623.17 110.69L623.17 110.69L644.38 164.77L666.64 110.48Q669.55 103.41 673.09 100.81Q676.62 98.21 682.86 98.21L682.86 98.21Q688.27 98.21 691.50 101.02Q694.72 103.82 695.45 108.40Q696.18 112.98 693.68 118.38L693.68 118.38L661.65 190.98Q658.94 197.63 654.47 200.75Q650 203.87 643.55 203.87ZM727.17 203.87L727.17 203.87Q719.47 203.87 715.42 199.71Q711.36 195.55 711.36 187.86L711.36 187.86L711.36 69.50Q711.36 61.60 715.42 57.54Q719.47 53.49 727.17 53.49L727.17 53.49Q734.66 53.49 738.71 57.54Q742.77 61.60 742.77 69.50L742.77 69.50L742.77 142.10L743.18 142.10L773.34 108.61Q777.92 103.41 781.77 100.81Q785.62 98.21 792.06 98.21Q798.51 98.21 801.94 101.54Q805.38 104.86 805.48 109.54Q805.58 114.22 801.42 119.01L801.42 119.01L774.80 148.75L804.96 183.49Q808.91 188.27 808.39 193.06Q807.87 197.84 804.13 200.86Q800.38 203.87 794.56 203.87L794.56 203.87Q787.49 203.87 783.22 201.17Q778.96 198.46 774.59 192.85L774.59 192.85L743.18 157.90L742.77 157.90L742.77 187.86Q742.77 203.87 727.17 203.87Z" fill="currentColor" /><path d="M903.14 203.87L903.14 203.87Q895.86 203.87 892.01 199.82Q888.16 195.76 888.16 188.27L888.16 188.27L888.16 69.71Q888.16 61.81 892.01 57.65Q895.86 53.49 902.30 53.49L902.30 53.49Q907.92 53.49 910.94 55.67Q913.95 57.86 917.90 62.85L917.90 62.85L985.30 148.75L985.30 68.88Q985.30 61.60 989.14 57.54Q992.99 53.49 1000.27 53.49Q1007.55 53.49 1011.40 57.54Q1015.25 61.60 1015.25 68.88L1015.25 68.88L1015.25 188.90Q1015.25 195.76 1011.71 199.82Q1008.18 203.87 1002.14 203.87L1002.14 203.87Q996.32 203.87 992.89 201.58Q989.46 199.30 985.50 194.30L985.50 194.30L918.11 108.19L918.11 188.27Q918.11 195.76 914.37 199.82Q910.62 203.87 903.14 203.87ZM1079.73 204.29L1079.73 204.29Q1066.83 204.29 1058.30 199.50Q1049.78 194.72 1045.72 185.05Q1041.66 175.38 1041.66 161.02L1041.66 161.02L1041.66 114.02Q1041.66 106.11 1045.72 102.16Q1049.78 98.21 1057.26 98.21Q1064.75 98.21 1068.91 102.16Q1073.07 106.11 1073.07 114.02L1073.07 114.02L1073.07 161.86Q1073.07 171.01 1076.82 175.48Q1080.56 179.95 1088.67 179.95L1088.67 179.95Q1097.62 179.95 1103.34 173.61Q1109.06 167.26 1109.06 156.86L1109.06 156.86L1109.06 114.02Q1109.06 106.11 1113.11 102.16Q1117.17 98.21 1124.66 98.21L1124.66 98.21Q1132.35 98.21 1136.41 102.16Q1140.46 106.11 1140.46 114.02L1140.46 114.02L1140.46 187.86Q1140.46 203.87 1125.28 203.87L1125.28 203.87Q1117.79 203.87 1113.84 199.71L1113.84 199.71Q1109.89 195.55 1109.89 188.06L1109.89 188.06Q1105.94 194.30 1099.90 198.46L1099.90 198.46Q1091.38 204.29 1079.73 204.29ZM1175.62 203.46L1175.62 203.46Q1169.79 203.46 1166.26 200.23Q1162.72 197.01 1162.62 192.02Q1162.51 187.02 1166.67 181.82L1166.67 181.82L1193.09 149.38L1168.96 119.84Q1164.59 114.43 1164.80 109.44Q1165.01 104.45 1168.54 101.33Q1172.08 98.21 1177.90 98.21L1177.90 98.21Q1183.52 98.21 1187.26 100.08Q1191.01 101.95 1194.34 106.32L1194.34 106.32L1211.18 127.74L1227.82 106.32Q1231.36 101.95 1235.10 100.08Q1238.85 98.21 1244.26 98.21L1244.26 98.21Q1250.08 98.21 1253.62 101.43Q1257.15 104.66 1257.26 109.65Q1257.36 114.64 1252.99 119.84L1252.99 119.84L1228.86 149.38L1255.49 181.82Q1259.86 186.82 1259.65 191.81Q1259.44 196.80 1255.80 200.13Q1252.16 203.46 1246.34 203.46L1246.34 203.46Q1240.72 203.46 1237.08 201.48Q1233.44 199.50 1229.90 195.34L1229.90 195.34L1210.98 171.01L1191.84 195.34Q1188.51 199.30 1184.87 201.38Q1181.23 203.46 1175.62 203.46ZM1331.20 204.29L1331.20 204.29Q1316.85 204.29 1307.18 199.50Q1297.50 194.72 1292.82 185.57Q1288.14 176.42 1288.14 162.48L1288.14 162.48L1288.14 123.38L1279.41 123.38Q1273.58 123.38 1270.36 120.26Q1267.14 117.14 1267.14 111.73L1267.14 111.73Q1267.14 105.90 1270.36 102.89Q1273.58 99.87 1279.41 99.87L1279.41 99.87L1288.14 99.87L1288.14 84.06Q1288.14 76.16 1292.30 72.10Q1296.46 68.05 1303.95 68.05L1303.95 68.05Q1311.65 68.05 1315.60 72.10Q1319.55 76.16 1319.55 84.06L1319.55 84.06L1319.55 99.87L1339.31 99.87Q1345.14 99.87 1348.26 102.89Q1351.38 105.90 1351.38 111.73L1351.38 111.73Q1351.38 117.14 1348.26 120.26Q1345.14 123.38 1339.31 123.38L1339.31 123.38L1319.55 123.38L1319.55 161.23Q1319.55 169.97 1323.61 174.34Q1327.66 178.70 1336.61 178.70L1336.61 178.70Q1339.73 178.70 1342.43 178.08Q1345.14 177.46 1347.42 177.25L1347.42 177.25Q1350.34 177.04 1352.21 179.02Q1354.08 180.99 1354.08 187.65L1354.08 187.65Q1354.08 192.64 1352.42 196.38Q1350.75 200.13 1346.59 201.79L1346.59 201.79Q1343.89 202.83 1339.21 203.56Q1334.53 204.29 1331.20 204.29ZM1483.25 202L1442.69 202Q1434.58 202 1430.21 197.63Q1425.84 193.26 1425.84 185.15L1425.84 185.15L1425.84 72.21Q1425.84 64.10 1430.21 59.73Q1434.58 55.36 1442.69 55.36L1442.69 55.36L1483.25 55.36Q1520.90 55.36 1541.38 74.39Q1561.87 93.42 1561.87 128.58L1561.87 128.58Q1561.87 146.26 1556.57 159.88Q1551.26 173.50 1541.28 182.86Q1531.30 192.22 1516.74 197.11Q1502.18 202 1483.25 202L1483.25 202ZM1458.08 81.78L1458.08 175.58L1481.38 175.58Q1493.23 175.58 1501.97 172.67Q1510.70 169.76 1516.53 163.94Q1522.35 158.11 1525.26 149.27Q1528.18 140.43 1528.18 128.58L1528.18 128.58Q1528.18 104.86 1516.42 93.32Q1504.67 81.78 1481.38 81.78L1481.38 81.78L1458.08 81.78ZM1633.22 204.29L1633.22 204.29Q1616.78 204.29 1604.62 197.84Q1592.45 191.39 1585.79 179.33Q1579.14 167.26 1579.14 150.83L1579.14 150.83Q1579.14 138.56 1582.88 128.78Q1586.62 119.01 1593.80 112.04Q1600.98 105.07 1610.96 101.43Q1620.94 97.79 1633.22 97.79L1633.22 97.79Q1649.65 97.79 1661.82 104.24Q1673.98 110.69 1680.74 122.54Q1687.50 134.40 1687.50 150.83L1687.50 150.83Q1687.50 163.31 1683.66 173.09Q1679.81 182.86 1672.74 189.94Q1665.66 197.01 1655.58 200.65Q1645.49 204.29 1633.22 204.29ZM1633.22 180.78L1633.22 180.78Q1640.08 180.78 1645.07 177.46Q1650.06 174.13 1652.98 167.58Q1655.89 161.02 1655.89 150.83L1655.89 150.83Q1655.89 135.65 1649.65 128.47Q1643.41 121.30 1633.22 121.30L1633.22 121.30Q1626.56 121.30 1621.46 124.42Q1616.37 127.54 1613.56 134.09Q1610.75 140.64 1610.75 150.83L1610.75 150.83Q1610.75 166.02 1616.99 173.40Q1623.23 180.78 1633.22 180.78ZM1756.35 204.29L1756.35 204.29Q1739.71 204.29 1727.34 197.74Q1714.96 191.18 1708.30 179.12Q1701.65 167.06 1701.65 150.62L1701.65 150.62Q1701.65 138.35 1705.39 128.58Q1709.14 118.80 1716.31 111.94Q1723.49 105.07 1733.68 101.43Q1743.87 97.79 1756.35 97.79L1756.35 97.79Q1762.80 97.79 1770.08 99.35Q1777.36 100.91 1784.43 104.66L1784.43 104.66Q1788.59 106.53 1790.15 109.96Q1791.71 113.39 1791.30 117.03Q1790.88 120.67 1788.70 123.48Q1786.51 126.29 1783.18 127.22Q1779.86 128.16 1775.70 126.08L1775.70 126.08Q1771.74 123.79 1767.48 122.75Q1763.22 121.71 1759.47 121.71L1759.47 121.71Q1753.23 121.71 1748.45 123.69Q1743.66 125.66 1740.44 129.30Q1737.22 132.94 1735.45 138.35Q1733.68 143.76 1733.68 150.83L1733.68 150.83Q1733.68 164.56 1740.44 172.36Q1747.20 180.16 1759.47 180.16L1759.47 180.16Q1763.22 180.16 1767.38 179.22Q1771.54 178.29 1775.70 176L1775.70 176Q1779.86 173.92 1783.18 174.96Q1786.51 176 1788.49 178.81Q1790.46 181.62 1790.78 185.26Q1791.09 188.90 1789.53 192.33Q1787.97 195.76 1784.02 197.63L1784.02 197.63Q1776.94 201.17 1769.87 202.73Q1762.80 204.29 1756.35 204.29ZM1845.17 204.29L1845.17 204.29Q1836.02 204.29 1826.34 202.62Q1816.67 200.96 1808.77 197.01L1808.77 197.01Q1804.61 194.93 1802.84 191.70Q1801.07 188.48 1801.28 185.15Q1801.49 181.82 1803.46 179.12Q1805.44 176.42 1808.66 175.48Q1811.89 174.54 1815.84 176.21L1815.84 176.21Q1824.37 179.74 1831.44 181.20Q1838.51 182.66 1845.38 182.66L1845.38 182.66Q1854.32 182.66 1858.38 179.85Q1862.43 177.04 1862.43 172.46L1862.43 172.46Q1862.43 168.30 1859.73 166.22Q1857.02 164.14 1851.82 163.31L1851.82 163.31L1829.98 159.36Q1817.09 157.07 1810.12 149.90Q1803.15 142.72 1803.15 131.49L1803.15 131.49Q1803.15 121.09 1808.98 113.50Q1814.80 105.90 1825.10 101.85Q1835.39 97.79 1848.50 97.79L1848.50 97.79Q1857.86 97.79 1865.76 99.46Q1873.66 101.12 1880.94 104.86L1880.94 104.86Q1884.69 106.74 1886.25 109.86Q1887.81 112.98 1887.29 116.30Q1886.77 119.63 1884.69 122.34Q1882.61 125.04 1879.38 125.87Q1876.16 126.70 1872.00 125.04L1872.00 125.04Q1865.34 121.92 1859.73 120.57Q1854.11 119.22 1848.91 119.22L1848.91 119.22Q1839.55 119.22 1835.39 122.23Q1831.23 125.25 1831.23 129.82L1831.23 129.82Q1831.23 133.36 1833.62 135.75Q1836.02 138.14 1841.01 138.98L1841.01 138.98L1862.85 142.93Q1876.37 145.22 1883.44 151.98Q1890.51 158.74 1890.51 170.38L1890.51 170.38Q1890.51 186.19 1878.14 195.24Q1865.76 204.29 1845.17 204.29Z" fill="var(--ui-primary, #6366f1)" />
</svg>
